<?xml version="1.0" encoding="UTF-8"?>
<!DOCTYPE svg PUBLIC "-//W3C//DTD SVG 1.1//EN" "http://www.w3.org/Graphics/SVG/1.1/DTD/svg11.dtd">
<!-- Creator: CorelDRAW -->
<svg xmlns="http://www.w3.org/2000/svg" xml:space="preserve" width="27.6687cm" height="5.61997cm" version="1.1" style="shape-rendering:geometricPrecision; text-rendering:geometricPrecision; image-rendering:optimizeQuality; fill-rule:evenodd; clip-rule:evenodd"
viewBox="0 0 8379.4 1701.99"
 xmlns:xlink="http://www.w3.org/1999/xlink"
 xmlns:xodm="http://www.corel.com/coreldraw/odm/2003">
 <defs>
  <style type="text/css">
   <![CDATA[
    .fil2 {fill:white}
    .fil0 {fill:black;fill-rule:nonzero}
    .fil1 {fill:black;fill-rule:nonzero}
    .fil4 {fill:gray;fill-rule:nonzero}
    .fil3 {fill:gray;fill-rule:nonzero;fill-opacity:0.400000}
   ]]>
  </style>
 </defs>
 <g id="Camada_x0020_1">
  <metadata id="CorelCorpID_0Corel-Layer"/>
  <g id="_1499110548432">
   <path class="fil0" d="M1424.88 1582.31c532.84,220.2 770.13,80.48 827.63,21.16l-184.44 -1079.95c0,0 -100.23,114.72 -362.39,106.82l93.79 547.85c-57.47,59.32 -294.86,199.11 -827.63,-21.09 -169.14,-69.93 -309.47,-92.99 -421.72,-91.66l95.65 542.58c0,0 246.25,-245.89 779.11,-25.71z"/>
   <path class="fil0" d="M1342.55 557.8c146.2,49.42 266.03,69.23 363.09,72.49l-90.64 -532.03c0,0 -188.23,215.56 -725.47,33.7 -536.65,-182.02 -696.83,-156.97 -889.53,-38.25l192.7 1088.41c0,0 114.82,-113.99 357.37,-116.71l-97.05 -545.86c192.72,-118.63 352.97,-144.41 889.53,38.25z"/>
  </g>
  <path class="fil1" d="M3266.22 1436.2c246.56,0 412.46,-132.41 412.46,-331.79 0,-153.72 -95.88,-254.17 -287.65,-312.01l-220.69 -66.97c-85.23,-24.35 -135.46,-73.06 -135.46,-140.02 0,-82.19 77.62,-141.54 196.34,-141.54 127.85,0 226.78,68.49 267.87,185.68l175.03 -80.66c-59.36,-161.33 -226.78,-283.09 -444.42,-283.09 -237.43,0 -400.28,133.93 -400.28,328.75 0,146.11 92.84,258.74 284.61,316.57l228.3 70.01c79.14,24.35 132.41,60.88 132.41,136.98 0,79.14 -80.66,140.02 -208.51,140.02 -127.85,0 -245.04,-76.1 -301.35,-216.12l-173.51 79.14c60.88,187.21 249.61,315.05 474.86,315.05z"/>
  <path class="fil1" d="M3867.4 1417.93l203.95 0 0 -420.07 246.56 0c234.39,0 403.33,-129.37 403.33,-356.15 0,-228.3 -165.9,-357.67 -403.33,-357.67l-450.51 0 0 1133.88zm203.95 -598.14l0 -357.67 248.08 0c117.19,0 196.34,71.53 196.34,179.59 0,106.54 -79.14,178.07 -196.34,178.07l-248.08 0z"/>
  <path class="fil1" d="M5389.38 284.05l-261.78 0 -400.28 1133.88 216.12 0 83.71 -245.04 464.21 0 83.71 245.04 216.12 0 -401.81 -1133.88zm-302.87 710.77l173.51 -503.78 171.98 503.78 -345.49 0z"/>
  <path class="fil1" d="M6430.43 1436.2c243.52,0 424.63,-136.98 483.99,-296.79l-181.12 -88.28c-45.66,118.72 -153.72,200.9 -302.87,200.9 -217.64,0 -368.32,-162.85 -368.32,-401.81 0,-237.43 150.68,-400.28 368.32,-400.28 149.16,0 257.22,83.71 302.87,200.9l181.12 -88.27c-57.83,-158.29 -238.95,-296.79 -483.99,-296.79 -328.75,0 -572.27,246.56 -572.27,584.44 0,337.88 245.04,585.97 572.27,585.97z"/>
  <polygon class="fil1" points="7103.15,1417.93 7867.19,1417.93 7868.71,1239.86 7307.09,1239.86 7307.09,938.51 7838.27,938.51 7838.27,760.44 7307.09,760.44 7307.09,462.12 7868.71,462.12 7868.71,284.05 7103.15,284.05 "/>
  <path class="fil2" d="M2990.96 325.32c-8.22,2.29 -20.5,9.57 -29.65,15.61 -9.16,6.04 -15.19,10.82 -22.75,16.9 -7.56,6.06 -16.64,13.43 -24.82,21.79 -8.18,8.35 -15.46,17.72 -21.87,26.54 -6.42,8.82 -11.96,17.1 -15.53,22.78 -3.58,5.68 -5.18,8.78 2.86,15.21 8.04,6.43 25.73,16.21 51.84,19.02 26.11,2.8 60.65,-1.36 85.3,-4.27 24.65,-2.91 39.43,-4.57 55.14,-8.11 15.71,-3.54 32.35,-8.95 67.41,-13.42 35.06,-4.47 88.53,-8.01 166.03,-5.92 77.5,2.07 179.03,9.77 233.45,13.42 54.4,3.64 61.68,3.22 65.84,1.66 4.16,-1.56 5.21,-4.27 5.73,-5.62 0.51,-1.35 0.51,-1.35 -0.74,-3.54 -1.25,-2.19 -3.74,-6.55 -9.62,-13.21 -5.88,-6.67 -15.13,-15.62 -27.04,-26.34 -11.91,-10.72 -26.47,-23.2 -37.38,-32.22 -10.92,-9.02 -18.18,-14.58 -24.69,-19.05 -6.51,-4.47 -12.25,-7.86 -30.83,-9.55 -18.58,-1.7 -50,-1.7 -101.82,-2.45 -51.82,-0.76 -124.06,-2.27 -177.95,-2.82 -53.91,-0.55 -89.49,-0.13 -118.49,-0.51 -29.01,-0.39 -51.45,-1.59 -64.75,-3.53 -13.3,-1.95 -17.46,-4.65 -25.68,-2.37z"/>
  <path class="fil3" d="M8379.39 351.58c-13.47,256.03 -783.16,450.33 -982.5,503.89 -1238.56,332.83 -3246.2,558.24 -4510.31,383.59 -149.92,-20.71 -679.67,-93.2 -552.35,-347.92 206.91,-413.98 2970.82,-658.71 3480.88,-705.58 362.81,-33.27 2323.12,-230.55 2538.18,79.82 17.7,25.55 26.4,55.19 26.1,86.19zm-3063.45 552.72c473.94,-48.93 2612.97,-278.95 2890.97,-559.04 -235.7,-188.56 -1581.76,-170.33 -1893.92,-158.82 -982.72,36.26 -2641.25,243.37 -3544.59,613.11 -85,34.79 -206.52,80.22 -268.32,150.25 342.71,203.49 2343.26,3.13 2815.86,-45.5z"/>
  <path class="fil4" d="M8327.58 349.27c-23.4,380.31 -2371.62,694.01 -2725.36,735.54 -629.31,73.88 -2581.64,235.85 -3118.31,-3.57 -256.61,-114.48 -21.7,-262.76 119.74,-324.71 908.48,-397.92 3519.45,-631.76 4554.86,-635.78 163.54,-0.64 1173.48,-18.94 1169.08,228.51zm-3000.71 660.98c520,-53.6 2578.35,-303.89 2910.18,-619.39 126.52,-120.3 -281.57,-173.84 -336.55,-181.9 -1137.77,-166.83 -3383.46,94.4 -4525.26,367.45 -109.01,26.07 -954.74,235.95 -937.89,383.68 16.73,146.66 900.45,157.87 1012.32,158.36 626.79,2.73 1254.05,-44.16 1877.2,-108.19z"/>
  <path class="fil1" d="M7307.1 630.2l0 -168.07 561.62 0 0 -178.08 -765.56 0 0 383.63 203.95 -37.49zm-4272.04 -51.64c-0.92,-72.99 77.44,-134.69 196.16,-134.69 127.85,0 226.78,68.5 267.87,185.69l175.02 -80.67c-59.36,-161.33 -226.78,-283.09 -444.42,-283.09 -237.43,0 -400.28,133.93 -400.28,328.75 0,40.1 1.8,34.34 1.8,34.34 83.43,-24.54 203.85,-50.33 203.85,-50.33zm1681.18 128.28c3.28,-20.71 5.01,-42.42 5.01,-65.12 0,-228.3 -165.9,-357.67 -403.33,-357.67l-450.51 0 0 422.78 203.95 0 0 -244.7 248.09 0c117.19,0 196.34,71.53 196.34,179.59 0,23.55 -3.86,45.39 -11.16,65.12l211.62 0zm673.16 -422.78l-261.79 0 -149.25 422.78 207.34 0 74.32 -215.79 73.67 215.79 205.52 0 -149.82 -422.78zm693.24 422.78c48.18,-157.15 177.48,-256.88 347.8,-256.88 149.15,0 257.21,83.71 302.87,200.9l181.12 -88.28c-57.84,-158.29 -238.95,-296.78 -483.99,-296.78 -280.13,0 -498.33,179.04 -556.77,441.04l208.97 0z"/>
 </g>
</svg>
