<?xml version="1.0" encoding="UTF-8"?>
<!DOCTYPE svg PUBLIC "-//W3C//DTD SVG 1.1//EN" "http://www.w3.org/Graphics/SVG/1.1/DTD/svg11.dtd">
<!-- Creator: CorelDRAW -->
<svg xmlns="http://www.w3.org/2000/svg" xml:space="preserve" width="7.43776cm" height="5.61997cm" version="1.1" style="shape-rendering:geometricPrecision; text-rendering:geometricPrecision; image-rendering:optimizeQuality; fill-rule:evenodd; clip-rule:evenodd"
viewBox="0 0 348.33 263.2"
 xmlns:xlink="http://www.w3.org/1999/xlink"
 xmlns:xodm="http://www.corel.com/coreldraw/odm/2003">
 <defs>
  <style type="text/css">
   <![CDATA[
    .fil0 {fill:white;fill-rule:nonzero}
   ]]>
  </style>
 </defs>
 <g id="Camada_x0020_1">
  <metadata id="CorelCorpID_0Corel-Layer"/>
  <g id="_1500722435600">
   <path class="fil0" d="M220.35 244.69c82.4,34.05 119.1,12.44 127.99,3.27l-28.52 -167.01c0,0 -15.5,17.74 -56.04,16.52l14.5 84.72c-8.89,9.17 -45.6,30.79 -127.99,-3.26 -26.16,-10.81 -47.86,-14.38 -65.22,-14.17l14.79 83.91c0,0 38.08,-38.02 120.48,-3.98z"/>
   <path class="fil0" d="M207.61 86.26c22.61,7.64 41.14,10.71 56.15,11.21l-14.02 -82.27c0,0 -29.11,33.33 -112.19,5.21 -82.99,-28.15 -107.76,-24.27 -137.56,-5.91l29.8 168.31c0,0 17.76,-17.63 55.26,-18.05l-15.01 -84.41c29.8,-18.35 54.58,-22.33 137.56,5.91z"/>
  </g>
 </g>
</svg>
